<svg width="56" height="56" viewBox="0 0 56 56" fill="none" xmlns="http://www.w3.org/2000/svg">
<path d="M13.9957 43.7052C14.4612 43.6943 14.9424 43.8206 15.2911 44.1406C15.6423 44.4627 15.7824 44.8982 15.7969 45.3625C15.8064 45.6707 15.7586 46.0519 15.6095 46.3256C15.3467 46.8082 14.6907 47.3843 14.3021 47.7833C13.5158 48.591 12.7105 49.3785 11.9354 50.1969C11.5243 50.6309 11.0839 51.0358 10.6602 51.4575C10.2134 51.9021 9.75347 52.4922 9.21023 52.8104C8.92903 52.9753 8.62087 53.0546 8.29572 53.0615C7.26071 53.0828 6.56388 52.1192 5.91851 51.4413C5.53709 51.0471 5.14823 50.6601 4.75214 50.2806C4.11166 49.6194 3.00873 48.7775 2.93927 47.8216C2.90646 47.3699 3.0457 46.9053 3.34533 46.5627C3.50689 46.3779 3.70333 46.2269 3.92338 46.1183C4.14343 46.0097 4.38276 45.9456 4.62764 45.9297C4.91649 45.9105 5.20478 45.9744 5.45854 46.1137C5.77985 46.2884 6.0342 46.5692 6.29143 46.8238C6.47187 47.0024 6.66478 47.1711 6.83827 47.3559C7.24895 47.794 7.65809 48.2881 8.11788 48.6741C8.35057 48.8697 8.53845 48.5801 8.69623 48.4185L10.7842 46.2865L12.0336 45C12.3652 44.6579 12.7977 44.1509 13.2028 43.9068C13.4438 43.7616 13.7226 43.7342 13.9957 43.7052Z" fill="#FF8400"/>
<path d="M13.716 23.6317C13.8139 23.6201 13.9109 23.6132 14.0094 23.6133C14.5301 23.6136 14.9637 23.7894 15.3285 24.1631C15.6636 24.5064 15.7649 24.9366 15.7591 25.4009C15.7565 25.6107 15.7372 25.9643 15.6228 26.1451C15.259 26.7195 14.6858 27.2133 14.2082 27.6941L12.018 29.8893L9.68847 32.2288C9.32584 32.5996 8.98382 32.9991 8.61009 33.3573C8.20931 33.7415 7.72256 33.9791 7.15873 33.9591C6.39251 33.9318 5.86196 33.2775 5.35787 32.7817C5.00869 32.4383 4.66044 32.0957 4.32488 31.7388C3.85569 31.2691 2.89532 30.4014 2.60827 29.8617C2.49804 29.6541 2.44058 29.4163 2.42847 29.1825C2.4033 28.6963 2.55474 28.2435 2.88556 27.8845C3.20417 27.5388 3.61876 27.3378 4.09033 27.322C5.01824 27.2908 5.5609 27.9659 6.13545 28.5864C6.49212 28.9716 6.84548 29.3624 7.23199 29.7181C7.7131 29.288 8.14489 28.8084 8.59855 28.3498L11.5312 25.3665C11.9844 24.909 12.3991 24.3923 12.9112 23.9999C13.1715 23.8006 13.3919 23.692 13.716 23.6317Z" fill="#FF8400"/>
<path d="M23.2616 44.2258C23.8866 44.1569 24.8372 44.2127 25.4945 44.2127L30.1721 44.2119L35.6373 44.2144L37.3567 44.2114C37.7395 44.2105 38.1297 44.1971 38.5112 44.234C38.8774 44.2659 39.2293 44.3911 39.5333 44.5977C40.0408 44.9403 40.4386 45.5165 40.5554 46.1194C40.6727 46.7242 40.5163 47.3428 40.1674 47.8467C39.7895 48.3919 39.1994 48.7105 38.5582 48.83C37.7155 48.9292 36.5506 48.8661 35.6824 48.8653H30.4226L25.7593 48.8666C24.9607 48.8691 24.0224 48.9317 23.2381 48.8439C22.7771 48.792 22.3397 48.6122 21.9753 48.325C21.5437 47.9873 21.2125 47.4773 21.1458 46.928C21.0653 46.2651 21.2291 45.6015 21.6503 45.0784C22.0616 44.5676 22.6156 44.2928 23.2616 44.2258Z" fill="white"/>
<path d="M28.7989 24.7596L42.0213 24.7636L46.4709 24.7714C47.1944 24.7725 48.1003 24.7129 48.8017 24.8038C49.3409 24.8736 49.817 25.0645 50.2083 25.4473C50.6674 25.8962 50.9602 26.4997 50.9624 27.1468C50.9646 27.7876 50.6936 28.3107 50.246 28.7566C49.9149 29.0864 49.555 29.2781 49.0989 29.3817C48.4178 29.5365 47.5051 29.4588 46.7969 29.4572L43.3808 29.4531L29.266 29.4534L25.3583 29.4531C24.6361 29.4566 23.8008 29.5239 23.0965 29.4268C22.6166 29.3582 22.1706 29.1397 21.8222 28.8026C21.3611 28.3613 21.0997 27.7857 21.0863 27.1478C21.0732 26.5183 21.3825 25.9343 21.8163 25.4934C22.0715 25.2341 22.3919 25.0102 22.7456 24.9121C23.5755 24.6821 24.734 24.7688 25.6067 24.767L28.7989 24.7596Z" fill="white"/>
<path d="M55.9999 8.47318C55.9244 8.59122 55.8692 8.72556 55.7973 8.84683C55.5701 9.2291 55.2553 9.6016 54.8794 9.8446C54.4703 10.1089 54.009 10.1629 53.5308 10.1853C52.8001 10.2196 52.058 10.1941 51.3266 10.193C50.018 10.186 48.7094 10.1856 47.4008 10.192L33.4728 10.1854L26.038 10.1964L24.428 10.1936C23.9169 10.1946 23.374 10.2332 22.8729 10.1196C22.2754 9.98406 21.7061 9.55862 21.3843 9.04089C21.0589 8.51753 20.9771 7.90626 21.1209 7.30962C21.2699 6.69105 21.7206 6.14677 22.2627 5.82376C22.6737 5.57882 23.1342 5.5308 23.6031 5.51221C24.3859 5.4812 25.1764 5.50313 25.96 5.50318L30.2394 5.50463L43.1708 5.50644L50.2454 5.506L52.2814 5.50463C52.9522 5.50441 53.7003 5.4486 54.3516 5.62194C55.3065 5.87599 55.5441 6.46773 55.9999 7.25037V8.47318Z" fill="white"/>
<path d="M2.41213 3.15583C5.11085 3.10158 7.81813 3.14457 10.5177 3.14473L13.1312 3.1435C13.6225 3.14249 14.1482 3.10593 14.635 3.16603C15.0162 3.21312 15.4054 3.35394 15.705 3.59784C16.2483 4.04021 16.5087 4.52392 16.5789 5.21968C16.6577 6.00005 16.6191 6.81735 16.6186 7.60143L16.6193 11.4462L16.6176 15.1291C16.6152 15.7687 16.6551 16.5851 16.5555 17.2072C16.497 17.5727 16.3017 17.9443 16.0659 18.226C15.6242 18.7536 15.1174 18.9453 14.4445 19.002C14.4216 19.0043 14.3987 19.0064 14.3757 19.0082C13.5626 19.0725 12.7232 19.0311 11.9068 19.0301L7.53517 19.0251L4.20143 19.0273C3.50681 19.0285 2.772 19.0757 2.08501 18.9755C1.65123 18.916 1.24373 18.733 0.911168 18.4482C0.453434 18.0547 0.210224 17.4607 0.167054 16.8664C0.111914 16.1073 0.156927 15.3179 0.157536 14.5557C0.152683 12.9771 0.157416 11.3985 0.171735 9.81991L0.164879 6.73278C0.165039 6.17056 0.128166 5.5745 0.209158 5.01797C0.267609 4.61634 0.444919 4.19413 0.715165 3.88922C1.15255 3.39569 1.77318 3.19811 2.41213 3.15583Z" fill="white"/>
<path d="M12.2998 6.98259C12.3337 6.97915 12.3665 6.97619 12.4007 6.97608C12.9046 6.9745 13.3751 7.14985 13.7357 7.50743C14.0655 7.8346 14.2184 8.29077 14.2139 8.74996C14.2112 9.01858 14.1514 9.40035 14.0046 9.62785C13.7723 9.98781 13.4417 10.2626 13.1419 10.5631L12.0316 11.6848L8.13832 15.5849C7.74503 15.9737 7.35571 16.2033 6.78846 16.1958C5.78495 16.1826 5.14497 15.237 4.50917 14.5848C4.03 14.0958 3.12276 13.3111 2.83669 12.7363C2.74153 12.5452 2.69121 12.3336 2.67772 12.1209C2.64671 11.6319 2.80125 11.1403 3.13039 10.7739C3.28924 10.5957 3.48229 10.4513 3.69804 10.3493C3.9138 10.2472 4.14787 10.1896 4.38634 10.1798C5.14098 10.1478 5.61544 10.6571 6.1055 11.1497C6.36332 11.4088 6.61975 11.6676 6.89054 11.9134C8.02651 10.7896 9.11555 9.61413 10.2467 8.48387C10.6542 8.0767 11.0347 7.60926 11.5071 7.27662C11.7445 7.10941 12.0136 7.01871 12.2998 6.98259Z" fill="#FF8400"/>
</svg>
