<svg width="73" height="72" viewBox="0 0 73 72" fill="none" xmlns="http://www.w3.org/2000/svg">
<g clip-path="url(#clip0_46_19)" filter="url(#filter0_d_46_19)">
<path d="M63.2478 58.7206C63.3008 58.5962 63.4012 58.4704 63.4635 58.3452C63.5822 58.1078 63.6489 57.8749 63.737 57.6266L63.7684 57.6157C63.8042 57.6373 63.8379 57.6567 63.877 57.6725C63.8865 57.6764 63.8967 57.6799 63.9062 57.6837C63.8001 58.0441 63.5926 58.6761 63.2601 58.8981L63.2308 58.8625L63.2787 58.7824L63.2478 58.7206Z" fill="#1A1A1A"/>
<path d="M55.7323 55.1093C56.1821 55.6004 56.6199 56.1016 57.0741 56.5889C57.0287 56.6365 57.0213 56.6376 56.9568 56.6526L55.5817 55.1315L55.7323 55.1093Z" fill="#1A1A1A"/>
<path d="M53.3157 52.5494C53.4021 52.5338 53.4382 52.5641 53.5172 52.5991C54.2596 53.4293 55.0085 54.2635 55.7329 55.109L55.5822 55.1312C54.8081 54.2955 54.0392 53.4296 53.3157 52.5494Z" fill="#1A1A1A"/>
<path d="M57.0741 56.5885C57.1728 56.6268 58.7486 58.5428 59.0562 58.8255L59.1593 58.9218C59.2375 59.0569 59.6294 59.3024 59.6359 59.406L59.5955 59.4544C58.9354 59.0741 58.4117 58.303 57.9146 57.7345C57.5974 57.3717 57.2696 57.0192 56.9568 56.6522C57.0213 56.6372 57.0287 56.6361 57.0741 56.5885Z" fill="#1A1A1A"/>
<path d="M50.65 49.3614C51.3876 50.1483 52.1052 50.9538 52.8022 51.7769C53.0294 52.0413 53.3231 52.3134 53.5167 52.5994C53.4377 52.5644 53.4016 52.5341 53.3152 52.5497C53.1511 52.4403 52.9756 52.1778 52.843 52.0249L51.6729 50.6733C51.2997 50.238 50.9078 49.8235 50.5125 49.4087L50.65 49.3614Z" fill="#1A1A1A"/>
<path d="M61.7293 59.6473C62.3224 59.516 62.8105 59.1239 63.2477 58.7209L63.2786 58.7827L63.2308 58.8628L63.26 58.8983C62.9803 59.2333 62.4356 59.632 62.0091 59.7504C61.8414 59.798 61.6741 59.8458 61.5016 59.8715C60.8718 59.965 60.1166 59.8371 59.5954 59.4548L59.6359 59.4064C59.6293 59.3028 59.2375 59.0572 59.1593 58.9221C59.9282 59.5311 60.5897 59.7709 61.5929 59.6703C61.6399 59.6656 61.6831 59.6571 61.7293 59.6473Z" fill="#1A1A1A"/>
<path d="M48.9067 40.5379C49.2261 40.4843 49.5433 40.4742 49.8638 40.5226C50.54 40.6079 51.0964 41.0293 51.5077 41.5578C51.5853 41.6574 51.7117 41.7889 51.759 41.9037C52.0373 42.1764 52.3365 42.4544 52.5697 42.7675C53.3438 43.7541 54.2082 44.6616 55.0227 45.6124C56.3473 47.1576 57.6491 48.7301 59.0155 50.2389C59.34 50.5939 59.6274 50.9797 59.946 51.3398C60.8434 52.3532 61.7474 53.3526 62.6106 54.3966C62.8947 54.7405 63.2559 55.0542 63.5007 55.4244C63.7355 55.7799 63.8706 56.2275 64.0002 56.6316V57.3721C63.9671 57.4757 63.9341 57.5788 63.9067 57.6841C63.8971 57.6803 63.887 57.6767 63.8775 57.6729C63.8384 57.657 63.8047 57.6376 63.7689 57.616L63.7375 57.6269C63.6494 57.8752 63.5827 58.1082 63.464 58.3455C63.4017 58.4708 63.3013 58.5966 63.2483 58.721C62.811 59.124 62.323 59.5161 61.7299 59.6474C61.6837 59.6572 61.6405 59.6657 61.5934 59.6703C60.5902 59.771 59.9287 59.5312 59.1598 58.9222L59.0567 58.826C58.7491 58.5432 57.1733 56.6273 57.0746 56.589C56.6204 56.1017 56.1826 55.6005 55.7328 55.1094C55.0085 54.2639 54.2596 53.4297 53.5172 52.5995C53.3236 52.3135 53.0299 52.0414 52.8027 51.777C52.1057 50.9539 51.3881 50.1484 50.6505 49.3615L50.5129 49.4088C49.8553 48.6798 49.1862 47.9582 48.5469 47.2133C48.2128 46.8242 47.9224 46.3624 47.545 46.0165C47.4488 45.9252 47.3088 45.7409 47.1876 45.7067L47.2046 45.611C46.8169 45.1669 46.4305 44.7571 46.2913 44.1681C46.1393 43.5233 46.288 42.9532 46.6296 42.4011C46.7846 42.2701 46.9093 42.0872 47.0359 41.9286C47.4805 41.3705 47.833 41.0091 48.4999 40.7241L48.5671 40.6574C48.6779 40.6033 48.7889 40.5716 48.9067 40.5379Z" fill="#787878"/>
<path d="M48.9065 40.5379C49.2259 40.4843 49.5431 40.4742 49.8635 40.5226C49.98 40.618 50.0878 40.7055 50.2239 40.7723C49.9962 40.7504 49.7687 40.6878 49.5406 40.6779C49.1898 40.6632 48.8483 40.8256 48.4996 40.7241L48.5669 40.6574C48.6776 40.6033 48.7887 40.5716 48.9065 40.5379Z" fill="#1A1A1A"/>
<path d="M49.8633 40.5223C50.5395 40.6076 51.0959 41.029 51.5072 41.5575C51.5848 41.6571 51.7112 41.7886 51.7585 41.9034C51.8178 42.018 51.881 42.1277 51.9102 42.2543C51.3171 41.6341 51.0864 41.0875 50.2237 40.772C50.0875 40.7052 49.9798 40.6177 49.8633 40.5223Z" fill="#1A1A1A"/>
<path d="M47.2041 45.6109L47.3373 45.6987C47.6181 45.8876 47.8642 46.227 48.0919 46.478C48.6752 47.1205 49.2448 47.7806 49.8192 48.4314C50.0924 48.7407 50.3557 49.0721 50.6499 49.3614L50.5124 49.4087C49.8548 48.6797 49.1857 47.9581 48.5464 47.2132C48.2122 46.8241 47.9219 46.3623 47.5445 46.0164C47.4483 45.9251 47.3083 45.7408 47.1871 45.7066L47.2041 45.6109Z" fill="#1A1A1A"/>
<path d="M51.7588 41.9036C52.0371 42.1762 52.3363 42.4543 52.5695 42.7674C53.3436 43.7539 54.208 44.6615 55.0225 45.6122C56.3471 47.1574 57.6489 48.73 59.0153 50.2388C58.9551 50.2538 58.9603 50.2503 58.9059 50.2344C58.7768 50.0624 58.5871 49.9416 58.4356 49.789C58.2748 49.6268 58.1389 49.4417 57.9866 49.2716C57.8368 49.104 57.6722 48.9484 57.5272 48.7767L52.3951 42.7614C52.2187 42.6312 52.059 42.4185 51.9105 42.2544C51.8813 42.1278 51.8181 42.0182 51.7588 41.9036Z" fill="#1A1A1A"/>
<path d="M38.3099 61.6223C37.0431 59.6973 36.7456 56.885 36.3229 54.6491C35.7697 51.7247 34.6313 47.6297 32.9018 45.2232C32.3293 44.4267 31.6765 43.8284 30.68 43.6717C29.5002 43.4858 28.5821 44.3783 27.9521 45.2664C26.5511 47.2411 25.7396 49.6072 25.145 51.9385C24.8759 52.9649 24.6469 54.0014 24.4585 55.0456C23.9939 57.5101 23.516 61.3544 21.337 62.9201C20.7169 63.3655 19.8993 63.5164 19.1488 63.3909C18.2226 63.2361 17.4584 62.4746 16.9457 61.7374C16.4183 60.9792 16.0436 60.1438 15.6989 59.291C14.068 55.2561 13.5219 50.247 13.6649 45.9122C13.6875 45.227 13.7087 44.5352 13.7523 43.8511C13.8894 41.7057 14.067 40.0202 13.6557 37.8814C13.1946 35.4833 11.9012 32.9412 10.8457 30.7385C10.5046 30.0266 10.2033 29.2886 9.90565 28.5574C9.70315 28.0599 9.4883 27.5616 9.31951 27.0516C8.3821 24.2189 7.91852 21.005 8.44729 18.0456C8.96104 15.1702 10.6465 12.3825 13.06 10.7118C14.4999 9.72169 16.1782 9.13438 17.9213 9.01065C20.1668 8.84757 22.3483 9.3658 24.5461 9.7414C26.3043 10.0419 28.3262 10.2939 30.1112 10.3029C30.5642 10.3051 31.0195 10.2665 31.4719 10.2432C32.3228 10.2057 33.1723 10.1402 34.0189 10.0467C35.0063 9.93112 35.995 9.76098 36.9772 9.60676C39.3337 9.23681 41.6822 8.66998 44.0748 9.10179C46.0315 9.45497 48.014 10.5008 49.3874 11.9477C49.8536 12.4388 50.2674 13.0129 50.6529 13.5685C52.1284 15.694 52.7956 18.5579 52.7067 21.1245C52.6632 22.3777 52.4472 23.6065 52.2254 24.8372C52.1727 25.0051 52.1163 25.1728 52.0704 25.3427L52.0663 25.3903C52.0362 25.7594 52.072 26.1365 52.0824 26.5064C52.0983 27.0761 52.0945 27.6569 52.045 28.225C51.6876 32.323 49.9556 36.0089 46.9002 38.793C47.2642 39.1578 47.5833 39.5597 47.9141 39.954C48.1148 40.1933 48.3156 40.4711 48.5668 40.6573L48.4996 40.724C47.8327 41.009 47.4802 41.3704 47.0356 41.9285C46.909 42.0871 46.7843 42.2701 46.6293 42.401C46.2877 42.9531 46.139 43.5232 46.291 44.168C46.4302 44.757 46.8166 45.1668 47.2043 45.6109L47.1874 45.7066C47.2995 46.42 47.2543 47.2179 47.247 47.9417C47.21 51.5418 46.5863 55.5556 45.3025 58.9172C44.9033 59.9626 44.4721 60.9387 43.8101 61.8474C43.2999 62.5479 42.5118 63.2673 41.6213 63.3977C40.8007 63.5178 40.0796 63.3833 39.4171 62.8763C39.0017 62.5583 38.5549 62.0863 38.3099 61.6223Z" fill="white"/>
<path d="M43.0222 41.4179C41.0755 42.3643 38.9511 42.8895 36.7876 42.959C34.6512 43.0448 32.5194 42.7006 30.5187 41.9466C28.5179 41.1927 26.6891 40.0444 25.1407 38.57C22.0992 35.7241 20.3563 31.629 20.2236 27.4861C20.1431 25.381 20.482 23.2808 21.2206 21.3079C21.9591 19.3349 23.0826 17.5285 24.5256 15.9936C25.967 14.4538 27.7008 13.2167 29.6257 12.3545C31.5505 11.4924 33.6279 11.0224 35.7365 10.9722C38.6064 10.8975 41.4431 11.5999 43.9465 13.0052C46.4499 14.4104 48.5269 16.4663 49.9577 18.9551C50.5456 19.9711 50.999 21.0821 51.3681 22.1944C51.5978 22.8867 51.7777 23.6171 51.889 24.3381C51.9319 24.6149 51.9352 24.8981 51.9784 25.174C51.9918 25.2604 52.0066 25.2826 52.0703 25.3426L52.0662 25.3902C52.0361 25.7593 52.0719 26.1364 52.0823 26.5063C52.0982 27.0759 52.0943 27.6568 52.0449 28.2249C51.6875 32.3229 49.9555 36.0088 46.9001 38.7929C47.2641 39.1577 47.5832 39.5596 47.914 39.9539C48.1147 40.1932 48.3154 40.471 48.5667 40.6572L48.4995 40.7239C47.8325 41.0088 47.4801 41.3703 47.0355 41.9284C46.9089 42.087 46.7842 42.2699 46.6292 42.4009C46.5559 42.2631 46.333 42.1001 46.2184 41.9853C45.8575 41.6233 45.0517 40.8204 44.8204 40.41C44.2442 40.8032 43.6386 41.098 43.0222 41.4179Z" fill="#7A797D"/>
<path d="M35.5387 13.371C35.5697 13.3686 35.6008 13.3666 35.6319 13.3649C37.3964 13.2984 39.1566 13.581 40.8115 14.1966C42.4665 14.8122 43.9835 15.7486 45.2755 16.9521C46.6145 18.1658 47.6961 19.636 48.4561 21.2755C49.2161 22.9151 49.6391 24.6905 49.7 26.4967C49.7651 28.2824 49.477 30.0634 48.8523 31.7375C48.2275 33.4117 47.2785 34.946 46.0595 36.2526C43.6413 38.8636 40.2909 40.4154 36.7355 40.571L36.7109 40.5726C36.0131 40.6208 35.3166 40.5789 34.6227 40.498C31.8935 40.1865 29.3259 39.0436 27.2679 37.2241C25.9232 36.0568 24.8228 34.635 24.0299 33.0406C23.2371 31.4461 22.7675 29.7106 22.6483 27.9339C22.4095 24.276 23.5592 20.7471 25.9839 17.9889C28.4469 15.1872 31.8328 13.6094 35.5387 13.371Z" fill="white"/>
</g>
<defs>
<filter id="filter0_d_46_19" x="-0.129032" y="-0.129032" width="72.2581" height="72.2581" filterUnits="userSpaceOnUse" color-interpolation-filters="sRGB">
<feFlood flood-opacity="0" result="BackgroundImageFix"/>
<feColorMatrix in="SourceAlpha" type="matrix" values="0 0 0 0 0 0 0 0 0 0 0 0 0 0 0 0 0 0 127 0" result="hardAlpha"/>
<feMorphology radius="1.80645" operator="dilate" in="SourceAlpha" result="effect1_dropShadow_46_19"/>
<feOffset/>
<feGaussianBlur stdDeviation="3.16129"/>
<feColorMatrix type="matrix" values="0 0 0 0 0 0 0 0 0 0 0 0 0 0 0 0 0 0 0.3 0"/>
<feBlend mode="normal" in2="BackgroundImageFix" result="effect1_dropShadow_46_19"/>
<feBlend mode="normal" in="SourceGraphic" in2="effect1_dropShadow_46_19" result="shape"/>
</filter>
<clipPath id="clip0_46_19">
<rect width="56" height="56" fill="white" transform="translate(8 8)"/>
</clipPath>
</defs>
</svg>
