<svg width="22" height="20" viewBox="0 0 22 20" fill="none" xmlns="http://www.w3.org/2000/svg">
<path d="M0 2C0 0.895431 0.895431 0 2 0H20C21.1046 0 22 0.895431 22 2C22 3.10457 21.1046 4 20 4H2C0.89543 4 0 3.10457 0 2Z" fill="black"/>
<path d="M0 10C0 8.89543 0.895431 8 2 8H20C21.1046 8 22 8.89543 22 10C22 11.1046 21.1046 12 20 12H2C0.89543 12 0 11.1046 0 10Z" fill="black"/>
<path d="M0 18C0 16.8954 0.895431 16 2 16H11C12.1046 16 13 16.8954 13 18C13 19.1046 12.1046 20 11 20H2C0.89543 20 0 19.1046 0 18Z" fill="black"/>
</svg>
