<svg width="20" height="27" viewBox="0 0 20 27" fill="none" xmlns="http://www.w3.org/2000/svg">
<path d="M0 0.875H1.41883V2.44901H3.03081V0.875H4.44943V5.40835H3.03081V3.58248H1.41883V5.40835H0V0.875Z" fill="white"/>
<path d="M5.02979 0.875H9.41455V1.94529H7.93147V5.40835H6.51286V1.94529H5.02979V0.875Z" fill="white"/>
<path d="M9.99487 0.875H11.8648L12.5771 3.64353L13.2822 0.875H15.1535V5.40835H13.9927V1.97114L13.117 5.40835H12.0401L11.1556 1.97114V5.40835H9.99487V0.875Z" fill="white"/>
<path d="M16.0564 0.875H17.4748V4.27509H19.732V5.40835H16.0564V0.875Z" fill="white"/>
<path d="M10.2172 18.7122H10.2066H3.33008L2.57366 10.4312L2.5 9.625H10.2066H10.2172H17.9161L17.8426 10.4312L17.7023 11.9546L17.6405 12.6301H17.6307H10.2172H10.2066H5.86347L6.14475 15.7073H10.2066H10.2172H16.5311H17.3604L17.2853 16.5143L16.5622 24.4255L16.5159 24.9333L10.2173 26.6378V26.6382L10.203 26.6422L3.89877 24.9333L3.46773 20.2149H4.89157H6.55715L6.77633 22.6115L10.2038 23.5153L10.2066 23.5146V23.5142L13.639 22.6097L13.9964 18.7122H10.2172Z" fill="white"/>
</svg>
