<svg width="32" height="32" viewBox="0 0 32 32" fill="none" xmlns="http://www.w3.org/2000/svg">
<path fill-rule="evenodd" clip-rule="evenodd" d="M4.80005 7.99999C4.80005 7.57565 4.96862 7.16868 5.26868 6.86862C5.56874 6.56857 5.9757 6.39999 6.40005 6.39999H25.6C26.0244 6.39999 26.4314 6.56857 26.7314 6.86862C27.0315 7.16868 27.2 7.57565 27.2 7.99999C27.2 8.42434 27.0315 8.83131 26.7314 9.13136C26.4314 9.43142 26.0244 9.59999 25.6 9.59999H6.40005C5.9757 9.59999 5.56874 9.43142 5.26868 9.13136C4.96862 8.83131 4.80005 8.42434 4.80005 7.99999ZM4.80005 16C4.80005 15.5756 4.96862 15.1687 5.26868 14.8686C5.56874 14.5686 5.9757 14.4 6.40005 14.4H25.6C26.0244 14.4 26.4314 14.5686 26.7314 14.8686C27.0315 15.1687 27.2 15.5756 27.2 16C27.2 16.4243 27.0315 16.8313 26.7314 17.1314C26.4314 17.4314 26.0244 17.6 25.6 17.6H6.40005C5.9757 17.6 5.56874 17.4314 5.26868 17.1314C4.96862 16.8313 4.80005 16.4243 4.80005 16ZM4.80005 24C4.80005 23.5756 4.96862 23.1687 5.26868 22.8686C5.56874 22.5686 5.9757 22.4 6.40005 22.4H16C16.4244 22.4 16.8314 22.5686 17.1314 22.8686C17.4315 23.1687 17.6 23.5756 17.6 24C17.6 24.4243 17.4315 24.8313 17.1314 25.1314C16.8314 25.4314 16.4244 25.6 16 25.6H6.40005C5.9757 25.6 5.56874 25.4314 5.26868 25.1314C4.96862 24.8313 4.80005 24.4243 4.80005 24Z" fill="white"/>
</svg>
